<?xml version="1.0" encoding="UTF-8"?>
<svg xmlns="http://www.w3.org/2000/svg" xmlns:xlink="http://www.w3.org/1999/xlink" width="50pt" height="50pt" viewBox="0 0 50 50" version="1.1">
<g id="surface16238684">
<path style=" stroke:none;fill-rule:nonzero;fill:rgb(41.176471%,40.784314%,44.313726%);fill-opacity:1;" d="M 25 5 C 13.953125 5 5 13.953125 5 25 C 5 36.046875 13.953125 45 25 45 C 36.046875 45 45 36.046875 45 25 C 45 13.953125 36.046875 5 25 5 Z M 20 35 C 14.476562 35 10 30.523438 10 25 C 10 19.476562 14.476562 15 20 15 C 22.601562 15 24.96875 15.992188 26.746094 17.621094 L 24.355469 19.960938 C 23.1875 18.949219 21.667969 18.332031 20 18.332031 C 16.316406 18.332031 13.332031 21.316406 13.332031 25 C 13.332031 28.683594 16.316406 31.667969 20 31.667969 C 23.300781 31.667969 26.035156 29.261719 26.566406 26.113281 L 20 26.113281 L 20 22.777344 L 29.738281 22.777344 L 29.792969 23 C 29.925781 23.648438 30 24.316406 30 25 C 30 30.523438 25.523438 35 20 35 Z M 38.332031 26.667969 L 38.332031 30 L 35 30 L 35 26.667969 L 31.667969 26.667969 L 31.667969 23.332031 L 35 23.332031 L 35 20 L 38.332031 20 L 38.332031 23.332031 L 41.667969 23.332031 L 41.667969 26.667969 Z M 38.332031 26.667969 "/>
</g>
</svg>
